<svg width="100" height="100" viewBox="0 0 100 100" xmlns="http://www.w3.org/2000/svg">
  <text x="50%" y="20" text-anchor="middle" font-size="16" fill="#444" font-family="Open Sans, sans-serif" font-weight="600">Loading...</text>
  <g transform="translate(50,55)">
    <g>
      <animateTransform attributeName="transform" type="rotate" from="0" to="360" dur="1.2s" repeatCount="indefinite"/>
      <g fill="#6a1b9a">
        <rect x="-4" y="-35" width="8" height="20" rx="4" ry="4" opacity="1"/>
        <rect x="-4" y="-35" width="8" height="20" rx="4" ry="4" transform="rotate(30)" opacity="0.9"/>
        <rect x="-4" y="-35" width="8" height="20" rx="4" ry="4" transform="rotate(60)" opacity="0.8"/>
        <rect x="-4" y="-35" width="8" height="20" rx="4" ry="4" transform="rotate(90)" opacity="0.7"/>
        <rect x="-4" y="-35" width="8" height="20" rx="4" ry="4" transform="rotate(120)" opacity="0.6"/>
        <rect x="-4" y="-35" width="8" height="20" rx="4" ry="4" transform="rotate(150)" opacity="0.5"/>
        <rect x="-4" y="-35" width="8" height="20" rx="4" ry="4" transform="rotate(180)" opacity="0.4"/>
        <rect x="-4" y="-35" width="8" height="20" rx="4" ry="4" transform="rotate(210)" opacity="0.3"/>
        <rect x="-4" y="-35" width="8" height="20" rx="4" ry="4" transform="rotate(240)" opacity="0.2"/>
        <rect x="-4" y="-35" width="8" height="20" rx="4" ry="4" transform="rotate(270)" opacity="0.1"/>
        <rect x="-4" y="-35" width="8" height="20" rx="4" ry="4" transform="rotate(300)" opacity="0.05"/>
        <rect x="-4" y="-35" width="8" height="20" rx="4" ry="4" transform="rotate(330)" opacity="0.02"/>
      </g>
    </g>
  </g>
</svg>